<svg width="254" height="48" viewBox="0 0 254 48" fill="none" xmlns="http://www.w3.org/2000/svg">
<path fill-rule="evenodd" clip-rule="evenodd" d="M7.36223 36.7833H10.5998L6.83774 46.5471H10.4444L14.2 36.7833L15.495 33.4376L16.5699 30.6484H21.8568L20.5942 27.3026H17.852L22.6597 14.8108L18.5448 3.74415V3.72163L17.5379 1.00965L0 46.5471H3.60665L7.36223 36.7833ZM9.72242 30.6484L11.0174 27.3026L17.4926 10.5225L19.0822 14.7883L12.9503 30.658L11.8948 33.4247H8.65726L9.72242 30.6484Z" fill="white"/>
<path fill-rule="evenodd" clip-rule="evenodd" d="M24.4598 29.3036L24.9617 30.6484L25.9977 33.4376H18.9074L17.6448 36.7833H27.2441L30.8767 46.547H34.4672L28.5521 30.6484H31.8285L37.7436 46.547H41.3373L34.179 27.3026L24.3433 1L22.5464 5.68725L30.5853 27.3026H27.3057L22.6597 14.8108L20.8338 19.5527L24.4598 29.3036Z" fill="white"/>
<path d="M64.9424 37.1597V40.5022H46.1872V34.9978C46.1855 34.2534 46.341 33.5169 46.6437 32.836C47.0486 31.8687 47.7246 31.0374 48.5913 30.4409C49.4579 29.8443 50.4788 29.5077 51.5324 29.4709H59.6749C60.2352 29.4186 60.7539 29.1543 61.1238 28.7328C61.4937 28.3113 61.6865 27.7647 61.6624 27.2059C61.6383 26.6472 61.3991 26.119 60.9943 25.7305C60.5895 25.3419 60.0499 25.1228 59.4871 25.1183H46.239V21.7822H59.4871C60.2141 21.7809 60.9341 21.9222 61.606 22.1981C62.2779 22.4739 62.8883 22.8789 63.4024 23.3896C63.9164 23.9004 64.3239 24.507 64.6015 25.1746C64.8791 25.8423 65.0214 26.5578 65.0201 27.2801C65.023 28.0257 64.8675 28.7635 64.5636 29.4452C64.2954 30.0615 63.9132 30.6224 63.4369 31.0988C62.4384 32.1219 61.0821 32.7243 59.649 32.7813H51.5324C50.9943 32.8369 50.496 33.0887 50.1337 33.4879C49.7714 33.8871 49.5707 34.4056 49.5704 34.9431V37.105L64.9424 37.1597Z" fill="white"/>
<path d="M85.8474 40.4443H82.0853L80.3662 37.105L76.2545 29.0978L72.1428 37.105L70.4236 40.4443H66.6615L68.3807 37.105L76.2545 21.7532L84.1282 37.105L85.8474 40.4443Z" fill="white"/>
<path d="M108.258 21.7532L106.539 25.0925L98.6617 40.4443L90.7944 25.0925L89.072 21.7532H92.834L94.5532 25.0925L98.6617 33.103L104.489 21.7532H108.258Z" fill="white"/>
<path d="M112.075 26.8008V28.5348H124.167V31.8741H112.075V35.3967C112.078 35.8488 112.261 36.2813 112.582 36.6009C112.904 36.9206 113.339 37.1016 113.794 37.105H127.525V40.4443H113.794C112.451 40.4392 111.165 39.9048 110.218 38.9585C109.271 38.0122 108.741 36.7312 108.743 35.3967V26.8008C108.741 25.4663 109.271 24.1853 110.218 23.239C111.165 22.2927 112.451 21.7583 113.794 21.7532H127.525V25.0925H113.794C113.339 25.0959 112.904 25.2769 112.582 25.5966C112.261 25.9162 112.078 26.3488 112.075 26.8008Z" fill="white"/>
<path d="M149.022 21.7822V40.47L133.572 28.6345V40.47H130.215V21.8433L145.665 33.6821V21.779L149.022 21.7822Z" fill="white"/>
<path d="M170.494 21.7822V25.1183H162.782V40.47H159.421V25.1183H151.709V21.7822H170.494Z" fill="white"/>
<path d="M192.017 21.7532V31.0988C192.017 33.5774 191.026 35.9544 189.262 37.7071C187.498 39.4597 185.106 40.4443 182.612 40.4443C180.117 40.4443 177.725 39.4597 175.961 37.7071C174.198 35.9544 173.207 33.5774 173.207 31.0988V21.7532H176.567V31.0988C176.567 32.6917 177.204 34.2194 178.338 35.3458C179.471 36.4722 181.009 37.105 182.612 37.105C184.215 37.105 185.752 36.4722 186.886 35.3458C188.02 34.2194 188.656 32.6917 188.656 31.0988V21.7532H192.017Z" fill="white"/>
<path d="M209.885 37.1597L211.608 40.5022H207.845L204.326 33.6692L204.245 33.5083C203.95 33.019 203.533 32.6138 203.034 32.3319C202.534 32.0501 201.97 31.9013 201.396 31.8998H198.036V40.5022H194.678V21.8079H206.554C207.217 21.8071 207.875 21.9363 208.488 22.1881C209.101 22.44 209.659 22.8096 210.128 23.2757C210.597 23.7419 210.97 24.2954 211.224 24.9047C211.477 25.514 211.608 26.1671 211.608 26.8265C211.607 27.7926 211.328 28.7383 210.804 29.5523C210.281 30.3662 209.534 31.0144 208.652 31.4205C208.194 31.6338 207.704 31.7687 207.201 31.8194L209.885 37.1597ZM206.554 28.5637C206.796 28.5644 207.035 28.5093 207.253 28.4029C207.556 28.2708 207.813 28.0542 207.994 27.7795C208.175 27.5048 208.272 27.1838 208.273 26.8555C208.271 26.3956 208.089 25.9546 207.765 25.6265C207.605 25.4704 207.416 25.3473 207.208 25.2645C207 25.1816 206.778 25.1407 206.554 25.144H198.036V28.5991L206.554 28.5637Z" fill="white"/>
<path d="M217.681 26.8008V28.5348H229.783V31.8741H217.681V35.3967C217.684 35.849 217.866 36.2821 218.188 36.6019C218.509 36.9217 218.945 37.1025 219.4 37.105H233.131V40.4443H219.4C218.057 40.4392 216.771 39.9048 215.824 38.9585C214.878 38.0122 214.347 36.7312 214.35 35.3967V26.8008C214.347 25.4663 214.878 24.1853 215.824 23.239C216.771 22.2927 218.057 21.7583 219.4 21.7532H233.131V25.0925H219.4C218.945 25.0959 218.51 25.2769 218.188 25.5966C217.867 25.9162 217.685 26.3488 217.681 26.8008Z" fill="white"/>
<path d="M250.248 26.9327V26.8265C250.245 26.3745 250.062 25.9419 249.741 25.6223C249.419 25.3027 248.984 25.1216 248.529 25.1183H240.898C240.443 25.1216 240.008 25.3027 239.686 25.6223C239.364 25.9419 239.182 26.3745 239.179 26.8265V26.9327C239.181 27.3853 239.363 27.8186 239.685 28.1389C240.007 28.4593 240.442 28.6408 240.898 28.6441H247.668C248.493 28.6434 249.309 28.8149 250.064 29.1474C250.818 29.4799 251.494 29.966 252.048 30.5744C252.129 30.6548 252.184 30.7352 252.262 30.8157C252.978 31.6797 253.432 32.7285 253.571 33.8394C253.71 34.9503 253.528 36.0776 253.046 37.0895C252.564 38.1015 251.803 38.9564 250.85 39.5544C249.898 40.1524 248.794 40.4689 247.668 40.4668H241.785C240.21 40.4668 238.7 39.8452 237.586 38.7387C236.473 37.6323 235.847 36.1315 235.847 34.5667H239.205C239.205 35.2493 239.477 35.9039 239.963 36.3866C240.449 36.8692 241.108 37.1404 241.795 37.1404H247.677C248.036 37.1739 248.398 37.1325 248.74 37.019C249.082 36.9054 249.397 36.7222 249.663 36.481C249.93 36.2398 250.143 35.9459 250.288 35.6182C250.434 35.2906 250.509 34.9363 250.509 34.578C250.509 34.2198 250.434 33.8654 250.288 33.5378C250.143 33.2101 249.93 32.9162 249.663 32.675C249.397 32.4338 249.082 32.2506 248.74 32.1371C248.398 32.0235 248.036 31.9821 247.677 32.0156H240.898C239.584 32.0196 238.32 31.5114 237.379 30.6001C237.135 30.3565 236.918 30.088 236.731 29.7991C236.148 28.9596 235.84 27.9622 235.847 26.9423V26.8362C235.845 25.5017 236.375 24.2207 237.322 23.2744C238.269 22.3281 239.555 21.7937 240.898 21.7886H248.529C249.874 21.7929 251.164 22.3261 252.115 23.2719C253.066 24.2177 253.602 25.4991 253.605 26.8362V26.9423L250.248 26.9327Z" fill="white"/>
</svg>
