<svg width="18" height="14" viewBox="0 0 18 14" fill="none" xmlns="http://www.w3.org/2000/svg">
<path d="M2.51875 2.96245C2.51875 2.74995 2.4125 2.53745 2.30625 2.4312L0.7125 0.5187V0.199951H5.6L9.425 8.5937L12.825 0.199951H17.5V0.5187L16.1188 1.7937C16.0125 1.89995 15.9062 2.0062 16.0125 2.2187V11.7812C16.0125 11.8875 16.0125 12.0999 16.1188 12.2062L17.3937 13.4812V13.8H10.7V13.4812L12.0812 12.0999C12.1875 11.9937 12.1875 11.8875 12.1875 11.675V3.9187L8.3625 13.5875H7.9375L3.475 3.9187V10.4C3.475 10.7187 3.58125 10.9312 3.6875 11.1437L5.49375 13.2687V13.5875H0.5V13.2687L2.30625 11.1437C2.51875 10.9312 2.625 10.7187 2.51875 10.4V2.96245Z" fill="white"/>
</svg>
