<svg width="17" height="14" viewBox="0 0 17 14" fill="none" xmlns="http://www.w3.org/2000/svg">
<path d="M17.01 1.66504C16.415 1.92004 15.735 2.09005 15.055 2.17505C15.735 1.75005 16.33 1.07005 16.585 0.305051C15.905 0.730051 15.225 0.985051 14.375 1.15505C13.78 0.475051 12.845 0.0500488 11.91 0.0500488C10.04 0.0500488 8.51 1.58005 8.51 3.45005C8.51 3.70505 8.51 3.96004 8.595 4.21504C5.79 4.04504 3.24 2.68505 1.54 0.645046C1.285 1.15505 1.115 1.75005 1.115 2.34505C1.115 3.53505 1.71 4.55505 2.645 5.15005C2.05 5.15005 1.54 4.98005 1.115 4.72505C1.115 6.34005 2.305 7.78504 3.835 8.04004C3.58 8.12504 3.24001 8.12505 2.90001 8.12505C2.64501 8.12505 2.475 8.12504 2.22 8.04004C2.645 9.40004 3.92001 10.42 5.45001 10.42C4.26001 11.355 2.81501 11.865 1.20001 11.865C0.945006 11.865 0.690006 11.8651 0.350006 11.7801C1.88001 12.7151 3.665 13.3101 5.62 13.3101C11.91 13.3101 15.31 8.12505 15.31 3.62005V3.19505C15.99 2.94005 16.585 2.34504 17.01 1.66504Z" fill="white"/>
</svg>
